<?xml version="1.0" standalone="no"?>
<!DOCTYPE svg PUBLIC "-//W3C//DTD SVG 20010904//EN"
 "http://www.w3.org/TR/2001/REC-SVG-20010904/DTD/svg10.dtd">
<svg version="1.0" xmlns="http://www.w3.org/2000/svg"
 width="128.000000pt" height="123.000000pt" viewBox="0 0 128.000000 123.000000"
 preserveAspectRatio="xMidYMid meet">
<metadata>
Created by potrace 1.16, written by Peter Selinger 2001-2019
</metadata>
<g transform="translate(0.000000,123.000000) scale(0.100000,-0.100000)"
fill="#1070CA" stroke="none">
<path d="M155 1185 c-51 -18 -110 -81 -124 -131 -15 -54 -15 -855 0 -909 15
-52 82 -119 134 -134 55 -15 905 -15 960 0 52 15 119 82 134 134 15 55 15 855
0 910 -15 52 -82 119 -134 134 -64 18 -918 14 -970 -4z m302 -363 c7 -5 13
-39 15 -89 l3 -82 98 90 c81 76 101 90 121 85 52 -13 42 -37 -51 -125 l-88
-83 95 -90 c52 -49 96 -84 98 -78 2 5 15 10 28 10 14 0 34 5 45 10 18 10 19
23 19 166 0 164 7 194 43 194 50 -1 52 -7 52 -188 0 -211 -11 -234 -118 -248
-33 -5 -47 -2 -61 11 -16 16 -18 16 -35 1 -10 -9 -23 -16 -29 -16 -7 0 -58 42
-114 94 l-103 95 -3 -82 c-2 -62 -7 -85 -19 -94 -22 -17 -38 -16 -57 3 -13 13
-16 46 -16 208 0 136 3 195 12 204 14 14 47 16 65 4z"/>
</g>
</svg>
